<svg xmlns="http://www.w3.org/2000/svg" viewBox="152.5 131.33999633789062 270 270"> <svg x="222.5" y="201.33999633789062" xmlns="http://www.w3.org/2000/svg" preserveAspectRatio="xMinYMin" height="130" width="130" fill="#37464c" fill-opacity="1" style="overflow: visible;"><rect rx="50%" ry="50%" x="0" y="0" height="130" width="130" stroke-width="0" stroke="#000" style=""></rect></svg> <svg xmlns="http://www.w3.org/2000/svg" id="Livello_1" dataName="Livello 1" viewBox="5.619999408721924 7.154995918273926 422.5 422.4851989746094" height="75.99999999999999" width="76.00265959827694" y="228.33899633789062" x="249.499" preserveAspectRatio="xMinYMin" style="overflow: visible;"><path class="cls-1" d="M184.44,235.08c-49.52,0-79.67-33.67-103.9-60.72C63,154.74,47.8,137.79,30.41,137.79a8.59,8.59,0,1,1,0-17.17c25.07,0,43.46,20.55,62.93,42.29,23.08,25.78,49.25,55,91.1,55A88.7,88.7,0,0,0,272.08,115.6c-2.36-15.07-15.91-26.44-31.52-26.44H46.62a41,41,0,0,1,0-82H249.29a8.59,8.59,0,1,1,0,17.17H46.62a23.85,23.85,0,0,0,0,47.69H240.56c24,0,44.83,17.61,48.49,41A105.91,105.91,0,0,1,184.44,235.08Z" style="fill: #FED74F; fill-opacity: 1;"></path><path class="cls-1" d="M176.33,137.79A16.69,16.69,0,1,1,193,121.11,16.7,16.7,0,0,1,176.33,137.79Zm0-17.17a.49.49,0,0,0-.48.49c0,.52,1,.52,1,0A.48.48,0,0,0,176.33,120.62Z" style="fill: #FED74F; fill-opacity: 1;"></path><path class="cls-1" d="M249.29,429.64a177.84,177.84,0,0,1-125-51.09,8.59,8.59,0,0,1-.57-11.67l12.6-14.95L152,304.85a8.58,8.58,0,0,1,16.72,2.71,72.49,72.49,0,1,0,106.76-63.82,146.2,146.2,0,0,1-91,31.87,8.59,8.59,0,1,1,0-17.17,129.12,129.12,0,0,0,84.22-31.35,8.6,8.6,0,0,1,9.11-1.33A89.63,89.63,0,1,1,158,341l-6,17.89a8.53,8.53,0,0,1-1.58,2.82l-8.4,10a160.63,160.63,0,0,0,107.22,40.77C338.43,412.47,411,340,411,250.82S338.43,89.16,249.29,89.16h-8.73a8.59,8.59,0,1,1,0-17.17h8.73c98.61,0,178.83,80.22,178.83,178.83S347.9,429.64,249.29,429.64Z" style="fill: #FED74F; fill-opacity: 1;"></path><path class="cls-1" d="M354.68,356.68c-2.47,0-4.88-.17-7.3-.35l-.77-.05a8.59,8.59,0,0,1,1.24-17.13l.78.06a94.83,94.83,0,0,0,42-6.67,8.59,8.59,0,1,1,6.4,15.94A113.32,113.32,0,0,1,354.68,356.68Z" style="fill: #FED74F; fill-opacity: 1;"></path><path class="cls-1" d="M338.94,258.65a8.59,8.59,0,0,1-4.68-15.79,96.38,96.38,0,0,0,43.68-91.63A8.58,8.58,0,0,1,395,149.38,113.55,113.55,0,0,1,343.6,257.27,8.6,8.6,0,0,1,338.94,258.65Z" style="fill: #FED74F; fill-opacity: 1;"></path><path class="cls-1" d="M245.18,305.35a8.59,8.59,0,0,1-2.93-16.66,168.59,168.59,0,0,0,33.83-16.61,8.59,8.59,0,0,1,9.29,14.44,186.35,186.35,0,0,1-37.27,18.32A8.52,8.52,0,0,1,245.18,305.35Z" style="fill: #FED74F; fill-opacity: 1;"></path><path class="cls-1" d="M257.22,344.09a8.58,8.58,0,0,1-2.82-16.69,204.09,204.09,0,0,0,29.1-12.67,8.59,8.59,0,0,1,8.09,15.15A221.87,221.87,0,0,1,260,343.62,8.69,8.69,0,0,1,257.22,344.09Z" style="fill: #FED74F; fill-opacity: 1;"></path></svg> <svg y="287.5" viewBox="-50.34466552734375 -33.4965705871582 99.98493957519531 33.65757751464844" x="239.99998021240233" height="33.65757751464844" width="99.98493957519531" style="overflow: visible;"><g fill="#FFFFFF" fill-opacity="1" style=""><path d="M3.14-7.67L3.14-4.91L3.78-4.91Q4.69-4.91 5.14-5.27Q5.59-5.63 5.59-6.32L5.59-6.32Q5.59-7.01 5.21-7.34Q4.84-7.67 4.03-7.67L4.03-7.67L3.14-7.67ZM7.58-6.39L7.58-6.39Q7.58-4.89 6.64-4.09Q5.71-3.30 3.98-3.30L3.98-3.30L3.14-3.30L3.14 0L1.17 0L1.17-9.28L4.13-9.28Q5.82-9.28 6.70-8.55Q7.58-7.83 7.58-6.39Z" transform="translate(-4.53654296875 0), rotate(55.831198361297 4.37353515625 -58.476232878276996)"></path><path d="M2.56-3.56L2.56-3.56Q2.56-2.51 2.90-1.97Q3.25-1.43 4.03-1.43L4.03-1.43Q4.81-1.43 5.14-1.96Q5.48-2.50 5.48-3.56L5.48-3.56Q5.48-4.61 5.14-5.14Q4.80-5.67 4.02-5.67L4.02-5.67Q3.24-5.67 2.90-5.14Q2.56-4.62 2.56-3.56ZM7.46-3.56L7.46-3.56Q7.46-1.83 6.55-0.85Q5.64 0.13 4.01 0.13L4.01 0.13Q2.98 0.13 2.20-0.32Q1.42-0.77 1.00-1.61Q0.58-2.44 0.58-3.56L0.58-3.56Q0.58-5.30 1.49-6.27Q2.40-7.23 4.04-7.23L4.04-7.23Q5.07-7.23 5.85-6.79Q6.63-6.34 7.05-5.51Q7.46-4.68 7.46-3.56Z" transform="translate(-4.4794140625 0), rotate(42.57757562727868 4.0244140625 -58.476232878276996)"></path><path d="M0.93-8.93L0.93-8.93Q0.93-9.88 1.99-9.88L1.99-9.88Q3.04-9.88 3.04-8.93L3.04-8.93Q3.04-8.48 2.78-8.23Q2.51-7.98 1.99-7.98L1.99-7.98Q0.93-7.98 0.93-8.93ZM2.95-7.10L2.95 0L1.02 0L1.02-7.10L2.95-7.10Z" transform="translate(-2.438642578125 0), rotate(32.40790506988675 1.98681640625 -58.476232878276996)"></path><path d="M5.97-2.11L5.97-2.11Q5.97-1.02 5.21-0.44Q4.45 0.13 2.94 0.13L2.94 0.13Q2.16 0.13 1.62 0.02Q1.07-0.08 0.60-0.29L0.60-0.29L0.60-1.89Q1.14-1.63 1.81-1.46Q2.49-1.29 3.00-1.29L3.00-1.29Q4.06-1.29 4.06-1.90L4.06-1.90Q4.06-2.13 3.92-2.27Q3.78-2.41 3.43-2.59Q3.09-2.77 2.52-3.02L2.52-3.02Q1.70-3.36 1.32-3.65Q0.93-3.94 0.76-4.32Q0.58-4.70 0.58-5.25L0.58-5.25Q0.58-6.20 1.32-6.71Q2.05-7.23 3.40-7.23L3.40-7.23Q4.68-7.23 5.89-6.67L5.89-6.67L5.31-5.27Q4.77-5.50 4.31-5.65Q3.85-5.80 3.36-5.80L3.36-5.80Q2.51-5.80 2.51-5.33L2.51-5.33Q2.51-5.07 2.78-4.88Q3.06-4.69 3.99-4.32L3.99-4.32Q4.82-3.98 5.21-3.69Q5.60-3.40 5.78-3.02Q5.97-2.63 5.97-2.11Z" transform="translate(-3.68595703125 0), rotate(23.404630948435198 3.275390625 -58.476232878276996)"></path><path d="M5.97-2.11L5.97-2.11Q5.97-1.02 5.21-0.44Q4.45 0.13 2.94 0.13L2.94 0.13Q2.16 0.13 1.62 0.02Q1.07-0.08 0.60-0.29L0.60-0.29L0.60-1.89Q1.14-1.63 1.81-1.46Q2.49-1.29 3.00-1.29L3.00-1.29Q4.06-1.29 4.06-1.90L4.06-1.90Q4.06-2.13 3.92-2.27Q3.78-2.41 3.43-2.59Q3.09-2.77 2.52-3.02L2.52-3.02Q1.70-3.36 1.32-3.65Q0.93-3.94 0.76-4.32Q0.58-4.70 0.58-5.25L0.58-5.25Q0.58-6.20 1.32-6.71Q2.05-7.23 3.40-7.23L3.40-7.23Q4.68-7.23 5.89-6.67L5.89-6.67L5.31-5.27Q4.77-5.50 4.31-5.65Q3.85-5.80 3.36-5.80L3.36-5.80Q2.51-5.80 2.51-5.33L2.51-5.33Q2.51-5.07 2.78-4.88Q3.06-4.69 3.99-4.32L3.99-4.32Q4.82-3.98 5.21-3.69Q5.60-3.40 5.78-3.02Q5.97-2.63 5.97-2.11Z" transform="translate(-3.68595703125 0), rotate(12.56778162968537 3.275390625 -58.476232878276996)"></path><path d="M2.56-3.56L2.56-3.56Q2.56-2.51 2.90-1.97Q3.25-1.43 4.03-1.43L4.03-1.43Q4.81-1.43 5.14-1.96Q5.48-2.50 5.48-3.56L5.48-3.56Q5.48-4.61 5.14-5.14Q4.80-5.67 4.02-5.67L4.02-5.67Q3.24-5.67 2.90-5.14Q2.56-4.62 2.56-3.56ZM7.46-3.56L7.46-3.56Q7.46-1.83 6.55-0.85Q5.64 0.13 4.01 0.13L4.01 0.13Q2.98 0.13 2.20-0.32Q1.42-0.77 1.00-1.61Q0.58-2.44 0.58-3.56L0.58-3.56Q0.58-5.30 1.49-6.27Q2.40-7.23 4.04-7.23L4.04-7.23Q5.07-7.23 5.85-6.79Q6.63-6.34 7.05-5.51Q7.46-4.68 7.46-3.56Z" transform="translate(-4.4794140625 0), rotate(0.5645358749951441 4.0244140625 -58.476232878276996)"></path><path d="M7.57-4.63L7.57 0L5.63 0L5.63-4.15Q5.63-4.91 5.36-5.30Q5.08-5.68 4.49-5.68L4.49-5.68Q3.68-5.68 3.31-5.14Q2.95-4.60 2.95-3.34L2.95-3.34L2.95 0L1.02 0L1.02-7.10L2.49-7.10L2.75-6.19L2.86-6.19Q3.19-6.70 3.75-6.97Q4.32-7.23 5.05-7.23L5.05-7.23Q6.28-7.23 6.93-6.56Q7.57-5.89 7.57-4.63L7.57-4.63Z" transform="translate(-4.72697265625 0), rotate(-12.969022003648874 4.291015625 -58.476232878276996)"></path><path d="M3.80-2.69L0.39-2.69L0.39-4.28L3.80-4.28L3.80-2.69Z" transform="translate(-2.546552734375 0), rotate(-23.661238164342095 2.091552734375 -58.476232878276996)"></path><path d="M5.37-5.17L8.63 0L6.40 0L3.97-3.91L3.14-3.31L3.14 0L1.17 0L1.17-9.28L3.14-9.28L3.14-5.03L3.91-6.13L6.42-9.28L8.61-9.28L5.37-5.17Z" transform="translate(-4.77140625 0), rotate(-34.41877252544799 4.900390625 -58.476232878276996)"></path><path d="M0.93-8.93L0.93-8.93Q0.93-9.88 1.99-9.88L1.99-9.88Q3.04-9.88 3.04-8.93L3.04-8.93Q3.04-8.48 2.78-8.23Q2.51-7.98 1.99-7.98L1.99-7.98Q0.93-7.98 0.93-8.93ZM2.95-7.10L2.95 0L1.02 0L1.02-7.10L2.95-7.10Z" transform="translate(-2.438642578125 0), rotate(-45.017676971265985 1.98681640625 -58.476232878276996)"></path><path d="M7.57-4.63L7.57 0L5.63 0L5.63-4.15Q5.63-4.91 5.36-5.30Q5.08-5.68 4.49-5.68L4.49-5.68Q3.68-5.68 3.31-5.14Q2.95-4.60 2.95-3.34L2.95-3.34L2.95 0L1.02 0L1.02-7.10L2.49-7.10L2.75-6.19L2.86-6.19Q3.19-6.70 3.75-6.97Q4.32-7.23 5.05-7.23L5.05-7.23Q6.28-7.23 6.93-6.56Q7.57-5.89 7.57-4.63L7.57-4.63Z" transform="translate(-4.72697265625 0), rotate(-55.551263216671316 4.291015625 -58.476232878276996)"></path></g></svg></svg>