<svg xmlns="http://www.w3.org/2000/svg" viewBox="62.25999999999999 56 450.48 464.88"><rect height="100%" width="100%" x="62.25999999999999" y="56" fill="rgba(240, 244, 255, 1)"/> <svg xmlns="http://www.w3.org/2000/svg" viewBox="0.2859494686126709 0.4775390625 31.99734878540039 34.64665985107422" fill="none" height="213" width="197" y="126" x="182" preserveAspectRatio="xMinYMin" style="overflow: visible;"><path d="M32.1049 6.10998C31.992 6.03533 29.3231 4.30945 26.1281 5.37031C26.0762 5.38841 26.0242 5.41103 25.9723 5.42913C25.8752 5.46305 25.7781 5.49925 25.681 5.53996C25.6065 5.57163 25.532 5.60556 25.4575 5.63949C25.383 5.67342 25.3085 5.70735 25.234 5.7458C25.1572 5.78425 25.0827 5.82044 25.0082 5.86116C24.9382 5.89961 24.8659 5.94033 24.7959 5.98331C24.6446 6.07152 24.4979 6.16426 24.3511 6.26379C24.3127 6.28867 24.2743 6.31355 24.2359 6.3407C24.2292 6.34522 24.2224 6.34974 24.2156 6.35653C22.8315 7.33596 21.6122 8.85147 20.569 10.8918L10.2953 0.59305C10.1937 0.491262 10.0447 0.452808 9.90697 0.493524C9.76923 0.534239 9.66311 0.645075 9.63149 0.785317C9.61343 0.866748 8.47542 6.08962 9.75794 12.0227H0.680969C0.53646 12.0227 0.405499 12.1019 0.335502 12.2263C0.265505 12.353 0.270021 12.5068 0.346792 12.629C0.364855 12.6584 0.890958 13.4794 1.87543 14.6647C1.90252 14.7167 1.94091 14.762 1.98607 14.7959C2.44443 15.341 2.99763 15.9586 3.63663 16.6077C3.67276 16.6779 3.72921 16.7344 3.7992 16.7706C6.2107 19.1796 9.82116 21.9754 14.4093 23.2217C10.2728 29.1797 5.91265 32.2628 5.84942 32.3058C5.7862 32.3487 5.73878 32.4098 5.70943 32.4777C5.70266 32.4935 5.7004 32.5093 5.69588 32.5252C5.69137 32.5455 5.68233 32.5636 5.68008 32.584C5.67556 32.6202 5.67556 32.6586 5.68233 32.6971C5.70717 32.8486 5.81781 32.9708 5.96684 33.0115L13.4926 35.1106C13.5265 35.1196 13.5626 35.1242 13.5987 35.1242C13.6913 35.1242 13.7816 35.0925 13.8539 35.0314C13.9532 34.9477 14.0051 34.8188 13.9916 34.6876C13.9758 34.5338 13.9645 34.3845 13.9555 34.2375C13.7477 30.313 16.3918 28.9784 19.7313 27.8339C20.3681 27.6393 21.4903 27.2661 22.1089 27.058C22.8337 26.8137 23.2628 26.6689 23.5202 26.5672C23.6173 26.5355 23.6444 26.5264 23.6511 26.5264L23.6489 26.5151C23.6985 26.4925 23.7369 26.4744 23.7685 26.4563C28.079 24.787 31.8452 22.0206 30.136 13.5111C30.1337 13.5043 30.1337 13.4998 30.1314 13.493C30.0705 13.1854 30.0005 12.8732 29.926 12.5498C29.9237 12.5407 29.9215 12.5317 29.9192 12.5249C29.2712 10.4303 29.296 8.86731 29.9915 7.88336C30.0344 7.82228 30.0818 7.76347 30.1292 7.70918C30.1427 7.69335 30.1563 7.67978 30.1698 7.66621C30.2037 7.62775 30.2376 7.5893 30.2737 7.55537C30.2918 7.53727 30.3121 7.52144 30.3324 7.50335C30.364 7.47394 30.3956 7.44453 30.4272 7.41965C30.4521 7.39929 30.4769 7.38346 30.5018 7.36537C30.5289 7.34501 30.5582 7.32239 30.5853 7.30203C30.6124 7.28393 30.6395 7.2681 30.6666 7.25001C30.6914 7.23417 30.7185 7.21608 30.7434 7.20024C30.775 7.18215 30.8088 7.16405 30.8404 7.14822C30.8608 7.13691 30.8811 7.1256 30.8992 7.11655C30.9421 7.09619 30.9827 7.0781 31.0233 7.06C31.0324 7.05548 31.0437 7.05095 31.0527 7.04643C31.0979 7.02607 31.143 7.01024 31.1882 6.9944C31.1927 6.99214 31.1972 6.98988 31.2017 6.98988C31.563 6.86095 31.8452 6.84059 31.8904 6.83833C31.8927 6.83833 31.8972 6.83833 31.8972 6.83833H31.8994C31.9197 6.83833 31.9401 6.83154 31.9604 6.82702C31.9807 6.82249 32.0033 6.82249 32.0214 6.81571C32.0485 6.80666 32.071 6.79083 32.0936 6.77499C32.1049 6.76821 32.1184 6.76368 32.1275 6.7569C32.1546 6.73654 32.1772 6.7094 32.1997 6.67999C32.2042 6.67547 32.2088 6.67094 32.2133 6.66642C32.2359 6.63249 32.2539 6.59404 32.2675 6.55332C32.2788 6.51261 32.2833 6.46963 32.2833 6.42891C32.2765 6.29772 32.2133 6.1801 32.1049 6.10998ZM30.574 6.39272C30.5401 6.40856 30.5085 6.42665 30.4747 6.44475C30.4476 6.45832 30.4205 6.47189 30.3956 6.48772C30.3618 6.50582 30.3279 6.52844 30.294 6.5488C30.2669 6.56463 30.2398 6.58046 30.215 6.5963C30.1811 6.61892 30.145 6.6438 30.1111 6.66868C30.0863 6.68678 30.0592 6.70261 30.0344 6.72297C29.996 6.75011 29.9598 6.78178 29.9215 6.81345C29.8989 6.83154 29.8763 6.84738 29.856 6.86773C29.8153 6.90166 29.777 6.94012 29.7386 6.97631C29.7205 6.9944 29.7002 7.01024 29.6821 7.02833C29.637 7.07357 29.5941 7.12107 29.5512 7.17084C29.5399 7.18441 29.5263 7.19572 29.515 7.21155C29.4608 7.27489 29.4066 7.34501 29.357 7.41513C28.5035 8.60945 28.438 10.4032 29.1628 12.7466C29.2328 13.0384 29.2937 13.3211 29.3502 13.5993C29.3592 13.6468 29.3705 13.6943 29.3796 13.7396C29.4292 13.9907 29.4721 14.2349 29.5128 14.477C29.5241 14.5471 29.5353 14.6172 29.5466 14.6851C29.5534 14.7213 29.5557 14.7552 29.5624 14.7914C28.7925 13.873 27.9299 13.0655 27.1419 12.3258C26.1778 11.4211 25.3446 10.6407 24.9607 9.93043C24.4188 8.92386 24.0282 7.55537 24.6988 6.98083C24.7462 6.9469 24.7937 6.91523 24.8411 6.88357C24.9156 6.8338 24.9924 6.78404 25.0669 6.7388C25.1752 6.67321 25.2814 6.60987 25.392 6.55106C25.4214 6.53523 25.4507 6.51939 25.4823 6.50356C25.6155 6.4357 25.7465 6.3701 25.882 6.31129C25.891 6.30677 25.9 6.30451 25.9091 6.29998C26.0626 6.23438 26.2162 6.17557 26.372 6.12355C28.149 5.53091 29.777 5.93128 30.7479 6.31581C30.7185 6.32939 30.6869 6.34296 30.6576 6.35653C30.6259 6.36784 30.5988 6.37915 30.574 6.39272ZM15.5406 21.4981C12.971 18.8788 11.5304 15.7889 10.756 12.8144H19.3023C19.4265 12.8144 19.5507 12.8212 19.6726 12.8303C19.5597 13.1153 19.4468 13.4048 19.3407 13.7011C18.363 16.3974 17.085 19.019 15.5406 21.4981ZM20.0971 13.9703C20.2236 13.6197 20.3568 13.2849 20.49 12.9547C22.7457 13.493 24.4301 15.5288 24.4301 17.9513C24.4301 20.7856 22.1293 23.0883 19.3 23.0883C18.0446 23.0883 16.8434 22.9525 15.7009 22.7173C17.3289 20.2405 18.8846 17.3203 20.0971 13.9703ZM10.2705 1.68784L20.1897 11.6246C20.1219 11.7694 20.0565 11.9164 19.9932 12.0635C19.7674 12.0363 19.5371 12.0227 19.3023 12.0227H10.564C9.54569 7.47394 10.0108 3.31645 10.2705 1.68784ZM4.98237 16.8204H9.52537C9.74439 16.8204 9.92051 16.6439 9.92051 16.4245C9.92051 16.2051 9.74439 16.0287 9.52537 16.0287H4.17402C3.78114 15.6283 3.42212 15.2438 3.10149 14.8796H7.80481C8.02383 14.8796 8.19995 14.7032 8.19995 14.4838C8.19995 14.2644 8.02383 14.0879 7.80481 14.0879H2.42185C2.00187 13.5767 1.66769 13.1379 1.43513 12.8144H9.94309C10.7447 16.0106 12.2823 19.3538 15.0935 22.1699C15.098 22.1744 15.1048 22.1812 15.1093 22.1857C15.0348 22.3011 14.958 22.4165 14.8835 22.5296C10.704 21.4642 7.34645 19.0484 4.98237 16.8204ZM13.1629 34.199L12.6662 34.061L6.9513 32.4664C7.60385 31.9552 8.69444 31.0436 10.0176 29.7249C10.9682 29.2227 12.7113 28.949 14.7254 28.6323C15.1183 28.5713 15.5293 28.5057 15.9538 28.4355C14.4206 29.3991 13.0162 31.0934 13.1629 34.199ZM22.687 26.013C22.5402 26.0627 22.3709 26.1193 22.1744 26.1849C19.5417 27.0738 16.9179 27.4855 14.6035 27.8497C13.2894 28.0555 12.1423 28.2365 11.203 28.474C12.472 27.101 13.8629 25.4181 15.2267 23.4276C16.5137 23.7171 17.873 23.8822 19.3023 23.8822C22.5673 23.8822 25.2227 21.2221 25.2227 17.9536C25.2227 15.2053 23.344 12.8868 20.8061 12.2173C21.6077 10.4281 22.5221 9.00529 23.545 7.96252C23.554 8.64111 23.7934 9.44185 24.2608 10.3082C24.7056 11.1338 25.5817 11.9549 26.5955 12.9049C27.6522 13.8957 28.8467 15.0176 29.7273 16.3318C30.145 22.611 26.6339 24.6106 22.687 26.013Z" fill="url(#paint0_linear)" style="fill: #4a73e8; fill-opacity: 1;"></path><linearGradient id="paint0_linear" x1="8.47265" y1="23.093" x2="36.0409" y2="9.97526" gradientUnits="userSpaceOnUse" style=""><stop stop-color="#FFA2A2"></stop><stop offset="1" stop-color="#FDDFB5"></stop></linearGradient></svg> <svg y="432" viewBox="0.8700000047683716 5.289999961853027 266.6600036621094 18.880001068115234" x="154" height="18" width="266" style="overflow: visible;"><g fill="#284389" fill-opacity="1" style=""><path d="M0.87 18.58L1.35 17.25Q3.50 18.30 5.95 18.30L5.95 18.30Q8.96 18.30 8.96 15.56L8.96 15.56Q8.96 14.67 8.48 14.12Q8.01 13.56 6.74 13.25L6.74 13.25L4.02 12.56Q0.89 11.77 0.89 9.22L0.89 9.22Q0.89 7.26 2.24 6.31Q3.58 5.36 5.96 5.36L5.96 5.36Q7.20 5.36 8.28 5.63Q9.37 5.90 10.10 6.35L10.10 6.35L9.64 7.66Q9.02 7.32 7.99 7.05Q6.97 6.78 5.92 6.78L5.92 6.78Q2.56 6.78 2.56 9.11L2.56 9.11Q2.56 9.90 3.08 10.38Q3.59 10.85 4.62 11.10L4.62 11.10L7.23 11.74Q8.90 12.13 9.76 13.01Q10.62 13.89 10.62 15.50L10.62 15.50Q10.62 17.60 9.34 18.66Q8.05 19.72 5.84 19.72L5.84 19.72Q4.19 19.72 2.91 19.39Q1.62 19.05 0.87 18.58L0.87 18.58ZM23.45 19.70L23.45 19.70Q21.96 19.70 21.35 18.90Q20.73 18.10 20.73 16.12L20.73 16.12L20.73 5.38L22.27 5.29L22.27 15.51Q22.27 16.14 22.28 16.52Q22.30 16.90 22.35 17.27Q22.41 17.64 22.50 17.82Q22.59 18.01 22.77 18.16Q22.95 18.31 23.19 18.36Q23.44 18.42 23.80 18.42L23.80 18.42Q24.10 18.42 24.97 18.30L24.97 18.30L25.05 19.54Q24.10 19.70 23.45 19.70ZM35.12 14.44L35.12 14.44Q35.12 16.25 35.92 17.34Q36.73 18.43 38.27 18.43L38.27 18.43Q39.79 18.43 40.56 17.35Q41.34 16.26 41.34 14.43L41.34 14.43Q41.34 12.56 40.57 11.49Q39.81 10.42 38.24 10.42L38.24 10.42Q36.72 10.42 35.92 11.51Q35.12 12.61 35.12 14.44ZM42.94 14.42L42.94 14.42Q42.94 16.78 41.68 18.25Q40.42 19.72 38.19 19.72L38.19 19.72Q36.05 19.72 34.78 18.24Q33.52 16.75 33.52 14.43L33.52 14.43Q33.52 12.05 34.79 10.59Q36.06 9.12 38.27 9.12L38.27 9.12Q40.46 9.12 41.70 10.59Q42.94 12.06 42.94 14.42ZM57.08 18.18L57.08 18.18Q57.87 18.18 58.47 17.91Q59.06 17.63 59.39 17.14Q59.73 16.64 59.89 16.04Q60.05 15.44 60.05 14.72L60.05 14.72L60.05 13.97Q60.05 13.23 59.88 12.60Q59.72 11.98 59.37 11.48Q59.02 10.98 58.44 10.71Q57.86 10.43 57.09 10.43L57.09 10.43Q56.45 10.43 55.93 10.67Q55.40 10.91 55.07 11.30Q54.73 11.70 54.49 12.22Q54.25 12.75 54.15 13.29Q54.05 13.82 54.05 14.37L54.05 14.37Q54.05 14.91 54.16 15.44Q54.27 15.97 54.51 16.47Q54.75 16.97 55.10 17.34Q55.44 17.72 55.96 17.95Q56.47 18.18 57.08 18.18ZM56.42 24.17L54.70 24.17L54.56 22.77L56.45 22.77Q57.24 22.77 57.83 22.66Q58.41 22.54 58.80 22.29Q59.19 22.03 59.43 21.72Q59.67 21.41 59.80 20.92Q59.92 20.42 59.96 19.93Q60.01 19.45 60.01 18.74L60.01 18.74L60.01 17.84Q59.45 18.64 58.72 19.07Q57.98 19.50 56.85 19.50L56.85 19.50Q55.98 19.50 55.24 19.20Q54.50 18.90 54.00 18.40Q53.49 17.90 53.14 17.24Q52.78 16.58 52.62 15.87Q52.45 15.17 52.45 14.45L52.45 14.45Q52.45 13.34 52.73 12.39Q53.00 11.45 53.54 10.71Q54.08 9.96 54.95 9.54Q55.83 9.12 56.96 9.12L56.96 9.12Q57.96 9.12 58.71 9.50Q59.46 9.89 60.05 10.69L60.05 10.69L60.05 9.33L61.56 9.33L61.56 18.78Q61.56 19.43 61.53 19.91Q61.50 20.40 61.37 20.99Q61.25 21.59 61.04 22.02Q60.82 22.44 60.44 22.87Q60.05 23.30 59.52 23.57Q58.98 23.83 58.20 24.00Q57.41 24.17 56.42 24.17L56.42 24.17ZM75.08 18.47L75.08 18.47Q76.19 18.47 77.03 17.86Q77.87 17.26 78.11 16.23L78.11 16.23L78.11 14.51Q78.06 14.51 77.55 14.56Q77.03 14.60 76.87 14.61L76.87 14.61Q74.86 14.79 74.07 15.27Q73.27 15.75 73.27 16.82L73.27 16.82Q73.27 17.64 73.76 18.05Q74.24 18.47 75.08 18.47ZM79.66 19.51L78.45 19.51Q78.31 18.92 78.18 18.23L78.18 18.23Q77.34 19.07 76.60 19.40Q75.85 19.72 74.85 19.72L74.85 19.72Q73.42 19.72 72.56 18.98Q71.69 18.23 71.69 16.83L71.69 16.83Q71.69 15.27 72.87 14.52Q74.05 13.77 76.28 13.58L76.28 13.58Q76.59 13.55 77.20 13.50Q77.82 13.45 78.13 13.42L78.13 13.42L78.13 12.52Q78.13 11.45 77.63 10.93Q77.13 10.41 76.05 10.41L76.05 10.41Q74.55 10.41 73.02 11.15L73.02 11.15Q72.97 11.04 72.77 10.51Q72.58 9.97 72.57 9.95L72.57 9.95Q73.25 9.57 74.18 9.35Q75.11 9.12 76.08 9.12L76.08 9.12Q77.98 9.12 78.82 9.95Q79.66 10.78 79.66 12.77L79.66 12.77L79.66 19.51ZM91.90 19.51L90.33 19.51L90.33 9.33L91.63 9.33L91.82 10.79Q92.43 10.04 93.33 9.58Q94.24 9.12 95.28 9.12L95.28 9.12Q97.05 9.12 97.89 10.11Q98.73 11.10 98.73 13.15L98.73 13.15L98.73 19.51L97.19 19.51Q97.19 13.39 97.18 12.95L97.18 12.95Q97.14 11.65 96.65 11.05Q96.17 10.45 95.02 10.45L95.02 10.45Q93.83 10.45 93.03 11.02Q92.23 11.60 91.99 12.52L91.99 12.52Q91.90 13.14 91.90 13.94L91.90 13.94L91.90 19.51ZM126.01 18.18L126.01 18.18Q126.80 18.18 127.39 17.91Q127.98 17.63 128.32 17.14Q128.65 16.64 128.81 16.04Q128.98 15.44 128.98 14.72L128.98 14.72L128.98 13.97Q128.98 13.23 128.81 12.60Q128.64 11.98 128.29 11.48Q127.95 10.98 127.37 10.71Q126.79 10.43 126.02 10.43L126.02 10.43Q125.38 10.43 124.85 10.67Q124.33 10.91 123.99 11.30Q123.65 11.70 123.41 12.22Q123.18 12.75 123.08 13.29Q122.97 13.82 122.97 14.37L122.97 14.37Q122.97 14.91 123.08 15.44Q123.20 15.97 123.44 16.47Q123.68 16.97 124.02 17.34Q124.36 17.72 124.88 17.95Q125.39 18.18 126.01 18.18ZM125.34 24.17L123.62 24.17L123.48 22.77L125.38 22.77Q126.16 22.77 126.75 22.66Q127.33 22.54 127.72 22.29Q128.11 22.03 128.35 21.72Q128.60 21.41 128.72 20.92Q128.85 20.42 128.89 19.93Q128.93 19.45 128.93 18.74L128.93 18.74L128.93 17.84Q128.37 18.64 127.64 19.07Q126.91 19.50 125.77 19.50L125.77 19.50Q124.90 19.50 124.17 19.20Q123.43 18.90 122.92 18.40Q122.42 17.90 122.06 17.24Q121.70 16.58 121.54 15.87Q121.38 15.17 121.38 14.45L121.38 14.45Q121.38 13.34 121.65 12.39Q121.92 11.45 122.46 10.71Q123.00 9.96 123.88 9.54Q124.75 9.12 125.89 9.12L125.89 9.12Q126.89 9.12 127.64 9.50Q128.38 9.89 128.98 10.69L128.98 10.69L128.98 9.33L130.49 9.33L130.49 18.78Q130.49 19.43 130.46 19.91Q130.42 20.40 130.30 20.99Q130.17 21.59 129.96 22.02Q129.75 22.44 129.36 22.87Q128.98 23.30 128.44 23.57Q127.91 23.83 127.12 24.00Q126.33 24.17 125.34 24.17L125.34 24.17ZM142.20 14.44L142.20 14.44Q142.20 16.25 143.00 17.34Q143.80 18.43 145.34 18.43L145.34 18.43Q146.87 18.43 147.64 17.35Q148.41 16.26 148.41 14.43L148.41 14.43Q148.41 12.56 147.65 11.49Q146.88 10.42 145.32 10.42L145.32 10.42Q143.79 10.42 143.00 11.51Q142.20 12.61 142.20 14.44ZM150.02 14.42L150.02 14.42Q150.02 16.78 148.76 18.25Q147.50 19.72 145.27 19.72L145.27 19.72Q143.13 19.72 141.86 18.24Q140.59 16.75 140.59 14.43L140.59 14.43Q140.59 12.05 141.86 10.59Q143.14 9.12 145.35 9.12L145.35 9.12Q147.53 9.12 148.78 10.59Q150.02 12.06 150.02 14.42ZM166.08 11.21Q165.40 10.40 164.21 10.40Q163.02 10.40 162.27 11.24Q161.52 12.08 161.39 13.54L161.39 13.54L166.76 13.54Q166.76 12.02 166.08 11.21ZM164.51 19.72L164.51 19.72Q162.30 19.72 161.02 18.31Q159.75 16.90 159.75 14.45L159.75 14.45Q159.75 12.09 160.98 10.62Q162.21 9.15 164.23 9.12L164.23 9.12Q166.12 9.12 167.23 10.41Q168.34 11.71 168.34 13.87L168.34 13.87Q168.34 13.98 168.33 14.28Q168.33 14.57 168.33 14.70L168.33 14.70L161.34 14.70Q161.37 16.44 162.24 17.41Q163.10 18.38 164.57 18.38L164.57 18.38Q166.18 18.38 167.81 17.52L167.81 17.52L168.05 18.78Q166.50 19.72 164.51 19.72ZM181.52 19.72L181.52 19.72Q180.48 19.72 179.61 19.50Q178.73 19.28 178.18 18.93L178.18 18.93L178.38 17.62Q179.93 18.44 181.42 18.44L181.42 18.44Q183.68 18.44 183.75 16.85L183.75 16.85Q183.75 16.17 183.27 15.78Q182.78 15.39 181.37 14.91L181.37 14.91L180.60 14.64Q179.27 14.19 178.70 13.54Q178.13 12.88 178.12 11.89L178.12 11.89Q178.12 10.70 179.08 9.91Q180.04 9.12 181.71 9.12L181.71 9.12Q183.43 9.12 184.85 9.79L184.85 9.79L184.40 10.98Q182.96 10.38 181.71 10.38L181.71 10.38Q180.73 10.38 180.18 10.77Q179.63 11.15 179.63 11.85L179.63 11.85Q179.63 12.44 180.03 12.76Q180.43 13.07 181.62 13.48L181.62 13.48Q181.93 13.59 182.39 13.74L182.39 13.74Q183.93 14.24 184.57 14.92Q185.21 15.60 185.21 16.76L185.21 16.76Q185.20 18.17 184.20 18.95Q183.21 19.72 181.52 19.72ZM216.48 19.51L214.93 19.51L214.93 13.36Q214.93 11.83 214.44 11.13Q213.95 10.44 212.74 10.44L212.74 10.44Q211.57 10.44 210.77 11.02Q209.96 11.61 209.72 12.53L209.72 12.53Q209.64 13.23 209.64 14.08L209.64 14.08L209.64 19.51L208.09 19.51L208.09 5.38L209.64 5.29L209.64 9.43Q209.64 9.95 209.60 10.73L209.60 10.73Q210.91 9.12 213.07 9.12L213.07 9.12Q216.48 9.12 216.48 13.12L216.48 13.12L216.48 19.51ZM232.25 11.21Q231.57 10.40 230.39 10.40Q229.20 10.40 228.45 11.24Q227.69 12.08 227.56 13.54L227.56 13.54L232.94 13.54Q232.94 12.02 232.25 11.21ZM230.69 19.72L230.69 19.72Q228.47 19.72 227.20 18.31Q225.92 16.90 225.92 14.45L225.92 14.45Q225.92 12.09 227.16 10.62Q228.39 9.15 230.40 9.12L230.40 9.12Q232.30 9.12 233.41 10.41Q234.51 11.71 234.51 13.87L234.51 13.87Q234.51 13.98 234.51 14.28Q234.50 14.57 234.50 14.70L234.50 14.70L227.52 14.70Q227.55 16.44 228.41 17.41Q229.28 18.38 230.75 18.38L230.75 18.38Q232.36 18.38 233.98 17.52L233.98 17.52L234.23 18.78Q232.68 19.72 230.69 19.72ZM249.23 9.24L249.23 9.24Q249.65 9.24 249.99 9.30L249.99 9.30L249.94 10.72Q249.51 10.65 249.19 10.65L249.19 10.65Q247.89 10.65 247.08 11.55Q246.27 12.46 246.27 13.80L246.27 13.80L246.27 19.51L244.72 19.51Q244.71 10.14 244.71 9.33L244.71 9.33L246.00 9.33L246.15 11.16Q246.68 10.30 247.50 9.77Q248.31 9.24 249.23 9.24ZM265.27 11.21Q264.59 10.40 263.40 10.40Q262.21 10.40 261.46 11.24Q260.71 12.08 260.58 13.54L260.58 13.54L265.95 13.54Q265.95 12.02 265.27 11.21ZM263.71 19.72L263.71 19.72Q261.49 19.72 260.21 18.31Q258.94 16.90 258.94 14.45L258.94 14.45Q258.94 12.09 260.17 10.62Q261.41 9.15 263.42 9.12L263.42 9.12Q265.31 9.12 266.42 10.41Q267.53 11.71 267.53 13.87L267.53 13.87Q267.53 13.98 267.52 14.28Q267.52 14.57 267.52 14.70L267.52 14.70L260.53 14.70Q260.56 16.44 261.43 17.41Q262.30 18.38 263.76 18.38L263.76 18.38Q265.38 18.38 267.00 17.52L267.00 17.52L267.24 18.78Q265.69 19.72 263.71 19.72Z" transform="translate(0, 0)"></path></g></svg> <svg y="387" viewBox="2.640000104904175 20 310.47998046875 25.200000762939453" x="132" height="25" width="310" style="overflow: visible;"><g fill="#284389" fill-opacity="1" style=""><path d="M2.64 20.00L12.12 20.00Q16.16 20.00 18.56 21.76Q20.96 23.52 20.96 26.64L20.96 26.64Q20.96 27.80 20.54 28.72Q20.12 29.64 19.44 30.30Q18.76 30.96 17.94 31.40Q17.12 31.84 16.32 32L16.32 32Q17.40 32.20 18.38 32.66Q19.36 33.12 20.10 33.86Q20.84 34.60 21.28 35.64Q21.72 36.68 21.72 38.04L21.72 38.04Q21.72 39.60 21.04 40.92Q20.36 42.24 19.08 43.18Q17.80 44.12 15.98 44.66Q14.16 45.20 11.92 45.20L11.92 45.20L2.64 45.20L2.64 20.00ZM8.72 24.56L8.72 29.92L11.16 29.92Q12.88 29.92 13.80 29.14Q14.72 28.36 14.72 27.08L14.72 27.08Q14.72 25.88 13.84 25.22Q12.96 24.56 11.20 24.56L11.20 24.56L8.72 24.56ZM8.72 34.44L8.72 40.64L11.08 40.64Q13.04 40.64 14.26 39.92Q15.48 39.20 15.48 37.48L15.48 37.48Q15.48 35.88 14.28 35.16Q13.08 34.44 11.12 34.44L11.12 34.44L8.72 34.44ZM33.88 45.20L33.88 20.00L43.88 20.00Q46.04 20.00 47.70 20.62Q49.36 21.24 50.46 22.32Q51.56 23.40 52.12 24.84Q52.68 26.28 52.68 27.92L52.68 27.92Q52.68 29.48 52.22 30.66Q51.76 31.84 51.04 32.72Q50.32 33.60 49.48 34.16Q48.64 34.72 47.92 35.04L47.92 35.04L53.96 45.20L46.96 45.20L42.48 36.12L39.96 36.12L39.96 45.20L33.88 45.20ZM39.96 24.56L39.96 31.52L41.80 31.52Q43.88 31.52 45.16 30.68Q46.44 29.84 46.44 27.96L46.44 27.96Q46.44 26.40 45.40 25.48Q44.36 24.56 42.40 24.56L42.40 24.56L39.96 24.56ZM63.20 45.20L72.36 20.00L78.84 20.00L87.92 45.20L81.48 45.20L79.76 39.80L71.28 39.80L69.56 45.20L63.20 45.20ZM73.56 32.36L72.60 35.40L78.36 35.40L77.40 32.36Q76.92 30.88 76.42 29.20Q75.92 27.52 75.56 26.12L75.56 26.12L75.48 26.12Q75.08 27.52 74.56 29.16Q74.04 30.80 73.56 32.36L73.56 32.36ZM99.28 45.20L99.28 20.00L104.88 20.00L110.40 28.44Q111.88 30.72 113.26 33.10Q114.64 35.48 115.40 37.40L115.40 37.40L115.48 37.40Q115.28 35 115.24 32.58Q115.20 30.16 115.20 27.76L115.20 27.76L115.20 20.00L120.80 20.00L120.80 45.20L115.20 45.20L109.36 36.60Q107.92 34.48 106.72 32.28Q105.52 30.08 104.68 27.64L104.68 27.64L104.60 27.64Q104.80 30.16 104.84 32.48Q104.88 34.80 104.88 37.20L104.88 37.20L104.88 45.20L99.28 45.20ZM134.08 20.00L143.08 20.00Q146.08 20.00 148.52 20.76Q150.96 21.52 152.70 23.04Q154.44 24.56 155.38 26.82Q156.32 29.08 156.32 32.08L156.32 32.08Q156.32 35.44 155.20 37.90Q154.08 40.36 152.14 41.98Q150.20 43.60 147.60 44.40Q145 45.20 142.08 45.20L142.08 45.20L134.08 45.20L134.08 20.00ZM140.16 24.64L140.16 40.56L141.72 40.56Q143.32 40.56 144.82 40.16Q146.32 39.76 147.44 38.78Q148.56 37.80 149.24 36.16Q149.92 34.52 149.92 32.08L149.92 32.08Q149.92 28.44 147.88 26.54Q145.84 24.64 142.36 24.64L142.36 24.64L140.16 24.64ZM185.68 45.20L185.68 20.00L191.28 20.00L196.80 28.44Q198.28 30.72 199.66 33.10Q201.04 35.48 201.80 37.40L201.80 37.40L201.88 37.40Q201.68 35 201.64 32.58Q201.60 30.16 201.60 27.76L201.60 27.76L201.60 20.00L207.20 20.00L207.20 45.20L201.60 45.20L195.76 36.60Q194.32 34.48 193.12 32.28Q191.92 30.08 191.08 27.64L191.08 27.64L191 27.64Q191.20 30.16 191.24 32.48Q191.28 34.80 191.28 37.20L191.28 37.20L191.28 45.20L185.68 45.20ZM218.48 45.20L227.64 20.00L234.12 20.00L243.20 45.20L236.76 45.20L235.04 39.80L226.56 39.80L224.84 45.20L218.48 45.20ZM228.84 32.36L227.88 35.40L233.64 35.40L232.68 32.36Q232.20 30.88 231.70 29.20Q231.20 27.52 230.84 26.12L230.84 26.12L230.76 26.12Q230.36 27.52 229.84 29.16Q229.32 30.80 228.84 32.36L228.84 32.36ZM254.48 45.20L256.20 20.00L263.80 20.00L266.52 28.84Q266.80 29.64 267.10 30.70Q267.40 31.76 267.70 32.90Q268 34.04 268.26 35.20Q268.52 36.36 268.68 37.36L268.68 37.36L268.88 37.36Q269.04 36.28 269.34 35.02Q269.64 33.76 269.94 32.58Q270.24 31.40 270.52 30.40Q270.80 29.40 270.96 28.84L270.96 28.84L273.60 20.00L281.20 20.00L283 45.20L277.32 45.20L276.88 36.68Q276.80 35.48 276.76 34.06Q276.72 32.64 276.70 31.16Q276.68 29.68 276.68 28.24Q276.68 26.80 276.68 25.60L276.68 25.60L276.56 25.60Q276.28 26.92 275.94 28.32Q275.60 29.72 275.24 31.10Q274.88 32.48 274.52 33.78Q274.16 35.08 273.80 36.16L273.80 36.16L271 45.20L266.44 45.20L263.52 36.20Q263.16 35.08 262.80 33.78Q262.44 32.48 262.10 31.10Q261.76 29.72 261.44 28.32Q261.12 26.92 260.88 25.60L260.88 25.60L260.76 25.60Q260.80 26.88 260.78 28.38Q260.76 29.88 260.72 31.38Q260.68 32.88 260.62 34.26Q260.56 35.64 260.52 36.68L260.52 36.68L260.08 45.20L254.48 45.20ZM296.20 45.20L296.20 20.00L313 20.00L313 24.64L302.28 24.64L302.28 29.80L311.96 29.80L311.96 34.40L302.28 34.40L302.28 40.56L313.12 40.56L313.12 45.20L296.20 45.20Z" transform="translate(0, 0)"></path></g></svg></svg>