<svg id="Layer_1" enable-background="new 0 0 511.985 511.985" height="512" viewBox="0 0 511.985 511.985" width="512" xmlns="http://www.w3.org/2000/svg"><path d="m414.4 222.532c-4.27-20.734-12.439-40.049-23.696-57.144l18.583-25.949-39.907-39.907-25.949 18.583c-17.094-11.257-36.41-19.426-57.144-23.696l-5.207-31.463h-56.435l-5.207 31.463c-20.734 4.27-40.05 12.439-57.144 23.696l-25.949-18.583-39.908 39.908 18.583 25.949c-11.257 17.094-19.426 36.41-23.696 57.144l-31.463 5.207v56.435l31.463 5.207c4.27 20.734 12.439 40.049 23.696 57.144l-18.583 25.949 39.908 39.908 25.949-18.583c17.094 11.257 36.41 19.426 57.144 23.696l5.207 31.463h56.435l5.207-31.463c20.734-4.27 40.05-12.439 57.144-23.696l25.949 18.583 39.908-39.908-18.583-25.949c11.257-17.094 19.426-36.41 23.696-57.144l31.463-5.207v-56.435z" fill="#fee95d"/><circle cx="252.863" cy="255.956" fill="#a4fef1" r="105.993"/><circle cx="451.443" cy="35.963" fill="#e54696" r="28.463"/><circle cx="61.706" cy="35.963" fill="#d8fc7e" r="28.463"/><circle cx="439.69" cy="476.022" fill="#d8fc7e" r="28.463"/><circle cx="60.542" cy="476.022" fill="#e54696" r="28.463"/><g fill="#fcad42"><path d="m363.431 118.115 14.295-10.237-8.346-8.346-16.8 12.031c3.705 2.05 7.328 4.231 10.851 6.552z"/><path d="m182.295 118.115c17.094-11.257 36.41-19.426 57.144-23.696l5.207-31.463h-20l-5.207 31.463c-16.46 3.39-32.022 9.245-46.293 17.144z"/><path d="m363.431 393.797c-3.523 2.32-7.146 4.501-10.851 6.552l16.8 12.031 8.346-8.346z"/><path d="m116.438 372.473 18.583-25.949c-11.257-17.094-19.426-36.41-23.696-57.144l-31.463-5.207v-56.435l31.463-5.207c4.27-20.734 12.439-40.049 23.696-57.144l-18.583-25.949 31.562-31.561-11.654-8.346-39.908 39.908 18.583 25.949c-11.257 17.094-19.426 36.41-23.696 57.144l-31.463 5.207v56.435l31.463 5.207c4.27 20.734 12.439 40.049 23.696 57.144l-18.583 25.949 39.908 39.908 11.654-8.347z"/><path d="m182.295 393.797-9.149 6.552c14.271 7.899 29.832 13.754 46.293 17.144l5.207 31.463h20l-5.207-31.463c-20.734-4.27-40.05-12.439-57.144-23.696z"/></g><path d="m166.87 255.956c0-55.168 42.143-100.48 95.993-105.52-62.64-5.862-115.993 43.389-115.993 105.52 0 62.164 53.391 111.378 115.993 105.52-53.85-5.04-95.993-50.352-95.993-105.52z" fill="#b6e6fa"/><path d="m461.443 9.311c-18.532-6.957-38.463 6.744-38.463 26.652 0 19.883 19.904 33.62 38.463 26.652-24.575-9.225-24.557-44.085 0-53.304z" fill="#7f34a9"/><path d="m71.706 9.311c-18.533-6.958-38.463 6.745-38.463 26.652 0 19.883 19.904 33.62 38.463 26.652-24.576-9.225-24.558-44.085 0-53.304z" fill="#54e072"/><path d="m449.69 449.369c-18.532-6.958-38.463 6.745-38.463 26.652 0 19.882 19.904 33.62 38.463 26.652-24.576-9.225-24.558-44.085 0-53.304z" fill="#54e072"/><path d="m70.542 449.369c-18.533-6.958-38.463 6.745-38.463 26.652 0 19.883 19.904 33.62 38.463 26.652-24.576-9.225-24.557-44.084 0-53.304z" fill="#7f34a9"/><path d="m370.188 422.177 48.896-48.896-19.332-26.999c9.645-15.637 16.649-32.524 20.876-50.333l32.735-5.411v-69.164l-32.735-5.411c-4.227-17.809-11.231-34.696-20.876-50.333l19.332-26.999-48.896-48.896-27 19.332c-5.442-3.354-11.108-6.426-16.902-9.162l-6.406 13.563c10.657 5.034 17.196 9.441 23.729 13.747l24.968-17.878 30.905 30.905-17.876 24.966c13.104 19.902 20.424 34.421 26.49 63.888l30.267 5.003v43.715l-30.267 5.003c-4.771 23.171-9.846 38.608-26.49 63.888l17.876 24.966-30.905 30.905-24.966-17.876c-19.902 13.104-34.421 20.424-63.888 26.49l-5.003 30.267h-43.715l-5.002-30.267c-23.041-4.744-38.499-9.772-63.887-26.49l-24.967 17.876-30.904-30.905 17.876-24.966c-13.06-19.835-20.414-34.362-26.49-63.888l-30.267-5.003v-43.715l30.267-5.003c4.784-23.248 9.876-38.655 26.49-63.888l-17.876-24.966 30.904-30.905 24.967 17.876c19.779-13.024 34.28-20.395 63.887-26.49l5.002-30.267h43.715l5.003 30.264c8.118 1.676 15.118 3.03 25.824 6.842l5.031-14.131c-5.75-2.047-11.691-3.802-17.723-5.236l-5.411-32.738h-69.164l-5.41 32.735c-17.81 4.227-34.698 11.231-50.333 20.876l-27-19.332-48.896 48.896 19.332 26.999c-9.645 15.637-16.649 32.524-20.876 50.333l-32.735 5.411v69.164l32.735 5.411c4.227 17.809 11.231 34.696 20.876 50.333l-19.332 26.999 48.896 48.896 27-19.332c15.635 9.645 32.523 16.649 50.333 20.876l5.41 32.735h69.165l5.411-32.735c17.809-4.227 34.696-11.231 50.333-20.876z"/><path d="m252.863 369.446c62.579 0 113.49-50.911 113.49-113.49s-50.911-113.49-113.49-113.49-113.49 50.911-113.49 113.49c0 27.541 9.987 54.1 28.121 74.784l11.279-9.889c-15.734-17.947-24.4-40.994-24.4-64.896 0-54.308 44.183-98.49 98.49-98.49s98.49 44.183 98.49 98.49-44.183 98.49-98.49 98.49c-23.555 0-46.347-8.444-64.18-23.776l-9.779 11.373c20.552 17.673 46.818 27.404 73.959 27.404z"/><path d="m233.163 294.918v-78.478h-52.59v78.478h15v-27.989h22.59v27.989zm-37.591-42.989v-20.489h22.59v20.488h-22.59z"/><path d="m260.246 266.394h37.591v-49.954h-52.59v78.478h15v-28.524zm.001-34.954h22.59v19.953h-22.59z"/><path d="m310.153 216.994h15v77.924h-15z"/><path d="m451.444 0c-19.83 0-35.964 16.134-35.964 35.964 0 17.258 12.222 31.71 28.463 35.17v109.922h-8.12v15h23.12v-124.921c16.242-3.459 28.464-17.912 28.464-35.171 0-19.83-16.133-35.964-35.963-35.964zm0 56.927c-11.56 0-20.964-9.404-20.964-20.963 0-11.56 9.404-20.964 20.964-20.964 11.559 0 20.963 9.404 20.963 20.964 0 11.558-9.405 20.963-20.963 20.963z"/><path d="m61.706 71.927c17.043 0 31.345-11.921 35.032-27.86h77.046v30.529h15v-45.53h-91.786c-3.227-16.54-17.822-29.066-35.292-29.066-19.83 0-35.963 16.134-35.963 35.964s16.132 35.963 35.963 35.963zm0-56.927c11.559 0 20.963 9.404 20.963 20.964 0 11.559-9.404 20.963-20.963 20.963s-20.963-9.404-20.963-20.963c-.001-11.56 9.403-20.964 20.963-20.964z"/><path d="m439.69 440.059c-17.748 0-32.526 12.927-35.435 29.857h-76.642v-30.95h-15v45.95h92.228c3.969 15.542 18.088 27.069 34.849 27.069 19.83 0 35.963-16.134 35.963-35.964s-16.133-35.962-35.963-35.962zm0 56.926c-11.56 0-20.964-9.404-20.964-20.964 0-11.559 9.404-20.963 20.964-20.963 11.559 0 20.963 9.404 20.963 20.963 0 11.56-9.404 20.964-20.963 20.964z"/><path d="m68.043 440.851v-106.925h3.02v-15h-18.02v121.925c-16.242 3.459-28.464 17.912-28.464 35.171 0 19.83 16.133 35.964 35.963 35.964s35.963-16.134 35.963-35.964c0-17.258-12.221-31.71-28.462-35.171zm-7.501 56.134c-11.559 0-20.963-9.404-20.963-20.964 0-11.559 9.404-20.963 20.963-20.963s20.963 9.404 20.963 20.963c0 11.56-9.404 20.964-20.963 20.964z"/><path d="m381.355 255.957c-.002-20.366-4.758-40.333-14.188-58.652l13.336-6.865c10.443 20.283 15.85 42.591 15.853 65.516zm-21.356-70.865c-2.603-3.92-5.454-7.74-8.475-11.356l11.512-9.617c3.371 4.036 6.554 8.301 9.459 12.675zm-18.14-21.727c-3.403-3.271-7.016-6.385-10.736-9.252l9.155-11.883c4.152 3.2 8.183 6.673 11.978 10.322z" fill="#fff"/></svg>